<svg width="20" height="20" viewBox="0 0 20 20" fill="none" xmlns="http://www.w3.org/2000/svg">
<path d="M8.33464 14.1667L4.16797 10.0001L5.34297 8.81675L8.33464 11.8084L14.6596 5.48341L15.8346 6.66675L8.33464 14.1667ZM10.0013 1.66675C8.90695 1.66675 7.82332 1.8823 6.81227 2.30109C5.80123 2.71987 4.88257 3.3337 4.10875 4.10752C2.54594 5.67033 1.66797 7.78994 1.66797 10.0001C1.66797 12.2102 2.54594 14.3298 4.10875 15.8926C4.88257 16.6665 5.80123 17.2803 6.81227 17.6991C7.82332 18.1179 8.90695 18.3334 10.0013 18.3334C12.2114 18.3334 14.3311 17.4554 15.8939 15.8926C17.4567 14.3298 18.3346 12.2102 18.3346 10.0001C18.3346 8.90573 18.1191 7.8221 17.7003 6.81105C17.2815 5.80001 16.6677 4.88135 15.8939 4.10752C15.12 3.3337 14.2014 2.71987 13.1903 2.30109C12.1793 1.8823 11.0957 1.66675 10.0013 1.66675Z" fill="#34C759"/>
</svg>
