<svg width="16" height="16" viewBox="0 0 16 16" fill="none" xmlns="http://www.w3.org/2000/svg">
<path d="M8 13.3333C6.76232 13.3333 5.57534 12.8417 4.70017 11.9665C3.825 11.0913 3.33333 9.90434 3.33333 8.66666C3.33333 7.42899 3.825 6.242 4.70017 5.36683C5.57534 4.49166 6.76232 4 8 4C9.23768 4 10.4247 4.49166 11.2998 5.36683C12.175 6.242 12.6667 7.42899 12.6667 8.66666C12.6667 9.90434 12.175 11.0913 11.2998 11.9665C10.4247 12.8417 9.23768 13.3333 8 13.3333ZM12.6867 4.92666L13.6333 3.98C13.3333 3.64 13.0333 3.33333 12.6933 3.04L11.7467 4C10.7133 3.16 9.41333 2.66666 8 2.66666C6.4087 2.66666 4.88258 3.29881 3.75736 4.42402C2.63214 5.54924 2 7.07537 2 8.66666C2 10.258 2.63214 11.7841 3.75736 12.9093C4.88258 14.0345 6.4087 14.6667 8 14.6667C11.3333 14.6667 14 11.98 14 8.66666C14 7.25333 13.5067 5.95333 12.6867 4.92666ZM7.33333 9.33333H8.66667V5.33333H7.33333V9.33333ZM10 0.666664H6V2H10V0.666664Z" fill="#6A6D70"/>
</svg>
